<svg width="64" height="64" viewBox="0 0 64 64" fill="none" xmlns="http://www.w3.org/2000/svg">
<path d="M54.667 27.1734H46.9603C40.6403 27.1734 35.4937 22.0267 35.4937 15.7067V8.00004C35.4937 6.53337 34.2937 5.33337 32.827 5.33337H21.5203C13.307 5.33337 6.66699 10.6667 6.66699 20.1867V43.8134C6.66699 53.3334 13.307 58.6667 21.5203 58.6667H42.4803C50.6937 58.6667 57.3337 53.3334 57.3337 43.8134V29.84C57.3337 28.3734 56.1337 27.1734 54.667 27.1734ZM32.747 42.08L27.4137 47.4134C27.227 47.6 26.987 47.76 26.747 47.84C26.507 47.9467 26.267 48 26.0003 48C25.7337 48 25.4937 47.9467 25.2537 47.84C25.0403 47.76 24.827 47.6 24.667 47.44C24.6403 47.4134 24.6137 47.4134 24.6137 47.3867L19.2803 42.0534C18.507 41.28 18.507 40 19.2803 39.2267C20.0537 38.4534 21.3337 38.4534 22.107 39.2267L24.0003 41.1734V30C24.0003 28.9067 24.907 28 26.0003 28C27.0937 28 28.0003 28.9067 28.0003 30V41.1734L29.9203 39.2534C30.6937 38.48 31.9737 38.48 32.747 39.2534C33.5203 40.0267 33.5203 41.3067 32.747 42.08Z" fill="#2B7A78"/>
<path d="M46.4798 23.4933C49.0132 23.5199 52.5332 23.5199 55.5465 23.5199C57.0665 23.5199 57.8665 21.7333 56.7998 20.6666C52.9598 16.7999 46.0798 9.83994 42.1332 5.89327C41.0398 4.79994 39.1465 5.54661 39.1465 7.06661V16.3733C39.1465 20.2666 42.4532 23.4933 46.4798 23.4933Z" fill="#2B7A78"/>
</svg>
